<svg id="Frankfurt" xmlns="http://www.w3.org/2000/svg" viewBox="0 0 50 50"><defs><style>.cls-1{fill:none;}</style></defs><title>201210_DRM_Recherchestation_Icon_Frankfurt</title><path class="cls-1" d="M25,50A25,25,0,1,1,50,25,25,25,0,0,1,25,50ZM25,4.89A20.11,20.11,0,1,0,45.11,25,20.13,20.13,0,0,0,25,4.89Z" transform="translate(0 0)"/><path class="cls-1" d="M25,36.76A11.76,11.76,0,1,1,36.76,25,11.77,11.77,0,0,1,25,36.76Zm0-18.82A7.07,7.07,0,1,0,32.07,25,7.06,7.06,0,0,0,25,17.94Z" transform="translate(0 0)"/></svg>