<?xml version="1.0" standalone="no"?>
<!DOCTYPE svg PUBLIC "-//W3C//DTD SVG 20010904//EN"
 "http://www.w3.org/TR/2001/REC-SVG-20010904/DTD/svg10.dtd">
<svg version="1.0" xmlns="http://www.w3.org/2000/svg"
 width="681.000000pt" height="681.000000pt" viewBox="0 0 681.000000 681.000000"
 preserveAspectRatio="xMidYMid meet">
<metadata>
Created by potrace 1.11, written by Peter Selinger 2001-2013
</metadata>
<g transform="translate(0.000000,681.000000) scale(0.100000,-0.100000)"
fill="#000000" stroke="none">
<path d="M2650 6144 c-103 -13 -121 -18 -162 -46 -14 -10 -32 -18 -39 -18 -6
0 -28 -12 -47 -27 -30 -22 -39 -25 -63 -16 -50 19 -66 -25 -27 -77 17 -24 19
-32 8 -45 -9 -11 -10 -18 -1 -29 6 -7 14 -35 17 -62 5 -47 16 -78 56 -171 10
-23 18 -47 18 -53 0 -6 21 -30 47 -55 47 -43 48 -45 49 -107 l2 -64 -107 1
c-115 0 -161 -10 -257 -56 -34 -16 -80 -31 -101 -33 -41 -4 -92 -30 -158 -80
-49 -37 -70 -60 -97 -106 -12 -19 -41 -54 -65 -77 -32 -32 -44 -53 -49 -84 -4
-26 -16 -50 -31 -63 -44 -37 -61 -84 -63 -176 -2 -47 -2 -88 -1 -93 0 -4 17
-1 36 7 19 8 35 12 35 8 0 -3 5 -1 12 6 20 20 74 14 125 -14 43 -23 56 -25
118 -21 42 4 90 1 120 -7 32 -8 62 -10 86 -5 31 7 45 4 83 -17 32 -18 58 -25
88 -23 24 1 54 -3 67 -8 35 -14 130 20 172 62 19 19 38 35 43 35 5 0 23 -11
40 -24 17 -12 46 -31 64 -40 32 -16 32 -17 17 -46 -8 -16 -15 -55 -15 -87 0
-49 -3 -59 -17 -60 -114 -5 -131 -4 -168 12 -22 10 -43 17 -47 17 -4 -1 -88
-4 -185 -6 -98 -3 -189 -7 -203 -10 -39 -7 -183 -20 -198 -17 -8 1 -35 18 -61
36 -72 52 -137 76 -206 77 -38 0 -71 7 -90 18 -16 10 -43 21 -60 25 -16 5 -37
10 -45 12 -18 5 -98 4 -125 -1 -64 -12 -109 -30 -155 -62 -47 -32 -54 -34 -85
-24 -88 29 -235 -7 -450 -110 -88 -42 -120 -69 -150 -126 -11 -22 -65 -82
-119 -134 -179 -172 -247 -314 -256 -533 -7 -200 -7 -202 18 -201 12 1 52 11
88 24 36 12 72 19 80 16 8 -3 27 -1 42 5 32 13 200 21 207 10 5 -9 148 25 185
44 15 8 41 30 59 50 l31 36 33 -34 c27 -29 42 -35 92 -42 107 -14 157 -7 182
23 12 15 22 23 23 19 0 -4 9 -3 20 3 16 8 18 8 14 -4 -8 -21 23 -33 85 -35 30
0 57 -5 60 -9 3 -5 33 -10 66 -11 57 -2 64 1 120 42 52 38 67 44 115 46 30 1
64 4 75 8 15 4 12 -4 -15 -31 -104 -110 -130 -139 -130 -150 0 -7 -13 -33 -29
-58 -16 -25 -32 -56 -36 -69 -4 -13 -22 -56 -41 -96 -18 -39 -35 -95 -38 -125
-11 -101 -18 -143 -28 -155 -16 -19 -121 -89 -146 -97 -12 -4 -22 -11 -22 -16
0 -4 -18 -21 -40 -37 -44 -33 -169 -143 -209 -185 -53 -56 -67 -70 -99 -101
-40 -38 -122 -145 -122 -159 0 -5 -8 -22 -18 -36 -24 -35 -76 -170 -96 -249
-16 -63 -14 -158 5 -178 5 -5 9 -28 9 -52 0 -24 7 -60 16 -81 9 -20 18 -53 19
-72 4 -50 41 -152 82 -224 31 -57 94 -126 114 -126 14 0 37 41 64 120 39 112
63 152 187 317 42 56 76 136 84 201 3 32 11 37 28 23 11 -10 23 -6 59 21 25
18 50 42 57 53 12 20 74 65 91 65 12 0 112 61 121 74 6 9 15 -15 21 -55 5 -28
17 -36 68 -42 67 -8 176 16 220 49 18 13 39 24 46 24 7 0 28 14 47 30 21 19
40 28 50 24 21 -8 20 -17 -9 -77 -15 -28 -31 -72 -36 -99 -6 -26 -15 -48 -20
-48 -5 0 -9 -8 -9 -18 0 -10 -4 -22 -9 -27 -23 -26 -53 -144 -54 -215 0 -62 4
-85 28 -135 18 -39 29 -80 30 -116 2 -31 8 -65 13 -76 6 -11 9 -28 8 -39 -4
-28 33 -134 60 -171 13 -17 24 -39 24 -47 0 -9 7 -16 15 -16 8 0 15 -4 15 -9
0 -4 27 -35 60 -69 33 -33 60 -66 60 -74 0 -23 124 -168 144 -168 6 0 24 -7
40 -15 35 -19 41 -12 51 54 3 25 13 65 21 88 7 24 16 55 19 70 3 16 17 71 31
123 43 157 43 154 -21 275 -61 115 -57 122 29 48 22 -18 49 -33 61 -33 22 0
94 68 116 111 8 15 25 46 38 70 15 27 25 63 27 94 1 45 4 50 30 57 50 13 180
192 192 263 1 6 10 33 19 60 26 79 23 168 -12 298 -8 32 -15 63 -15 69 0 8 22
-15 46 -50 1 -2 18 -7 38 -12 31 -7 42 -4 88 29 51 35 82 76 244 319 40 61 29
64 127 -32 59 -57 87 -93 112 -141 6 -12 23 -21 40 -23 17 -2 41 -14 55 -26
39 -35 80 -58 94 -53 26 10 41 -12 43 -67 1 -31 7 -75 14 -98 6 -24 13 -51 15
-62 15 -77 114 -229 153 -234 21 -3 23 -8 18 -49 -4 -35 1 -57 25 -106 16 -34
34 -72 40 -84 6 -12 25 -36 41 -53 32 -33 63 -35 97 -6 8 7 32 23 53 36 l38
22 -50 -78 c-28 -44 -56 -86 -63 -94 -13 -14 -15 -74 -5 -120 3 -14 10 -56 16
-95 14 -89 21 -126 27 -147 2 -9 7 -45 10 -79 3 -35 7 -65 9 -67 1 -2 22 2 45
8 51 14 121 75 167 147 18 29 38 53 44 53 6 0 31 20 56 45 24 25 48 45 53 45
6 0 10 7 10 15 0 7 7 18 15 22 20 12 75 137 75 172 0 16 5 31 10 33 6 2 15 31
20 66 5 34 18 75 29 91 12 16 21 34 21 39 0 19 16 21 55 7 22 -7 54 -11 72 -8
27 5 36 1 58 -26 15 -17 32 -31 38 -31 7 0 32 -16 55 -35 60 -47 159 -77 242
-73 36 2 65 8 66 13 1 16 15 64 40 144 27 84 29 111 12 193 -11 51 -10 60 5
75 15 16 16 15 16 -18 -2 -63 21 -133 66 -200 56 -86 110 -193 125 -249 34
-130 42 -149 62 -156 46 -14 180 177 207 297 6 24 17 58 26 76 9 18 17 48 19
68 2 19 9 42 16 50 18 22 24 126 10 186 -17 79 -49 180 -66 211 -8 14 -14 32
-14 38 0 19 -88 146 -126 182 -19 18 -34 37 -34 44 0 16 -245 260 -321 320
-72 56 -67 44 -70 182 -1 56 -50 214 -99 319 -27 57 -137 214 -160 228 -18 11
-11 22 13 20 30 -3 57 12 57 32 0 9 13 -4 30 -30 16 -26 47 -62 67 -80 20 -17
47 -42 60 -53 24 -23 124 -41 146 -27 7 4 39 8 72 8 56 0 60 2 59 23 -1 20 4
22 58 24 32 1 73 2 91 3 17 1 46 -1 62 -6 17 -4 54 -10 83 -12 70 -7 78 7 55
100 -37 154 -217 382 -408 514 -33 23 -73 55 -89 70 -18 17 -41 29 -56 29 -14
0 -35 7 -46 15 -10 8 -29 15 -41 15 -12 0 -24 4 -28 9 -13 23 -245 99 -353
116 l-43 7 36 18 c32 16 40 16 83 4 40 -12 55 -12 102 0 48 12 59 12 93 -1 44
-18 103 -13 162 13 22 10 44 17 48 16 4 -1 20 -4 35 -5 15 -2 49 -13 76 -25
26 -12 51 -20 55 -18 4 3 8 48 9 101 2 104 -9 144 -53 197 -14 16 -25 42 -25
56 -1 42 -35 107 -69 131 -50 36 -41 51 27 45 44 -4 72 -1 117 16 33 11 78 23
100 26 22 3 59 14 83 24 l43 19 -16 31 c-15 29 -15 30 4 30 11 0 40 -14 63
-30 28 -20 65 -34 107 -41 57 -11 73 -9 145 11 89 25 119 48 110 86 -8 30 7
31 119 9 90 -17 172 -19 237 -5 56 12 140 50 140 63 0 5 11 6 25 3 34 -9 75 3
75 21 0 8 -29 43 -65 78 -36 36 -65 69 -65 74 0 5 -15 26 -34 46 -43 46 -91
107 -91 118 0 4 -11 13 -25 20 -14 7 -33 29 -43 50 -10 20 -25 37 -33 37 -8 0
-14 4 -14 8 0 12 -82 68 -132 89 -23 10 -71 28 -105 38 -35 11 -63 25 -63 31
0 13 -205 9 -243 -5 -22 -9 -31 -7 -45 7 -40 39 -83 49 -197 47 -117 -2 -143
-10 -240 -76 -35 -24 -49 -27 -105 -25 -80 3 -135 -13 -135 -40 0 -15 -9 -20
-41 -24 -31 -4 -48 -13 -69 -37 -15 -18 -33 -33 -41 -33 -27 0 -136 -61 -178
-101 -24 -21 -47 -39 -52 -39 -14 0 -39 -48 -55 -102 l-13 -48 -49 0 c-49 0
-49 0 -42 28 4 15 9 45 12 67 3 33 14 49 59 90 42 38 65 72 100 144 25 52 50
117 56 145 6 28 15 57 20 63 6 7 8 23 4 36 -4 17 1 30 19 47 26 24 32 54 15
80 -7 12 -15 13 -40 3 -28 -11 -33 -9 -67 23 -19 19 -42 34 -49 34 -7 0 -25
11 -41 24 -36 30 -88 52 -142 60 -23 3 -59 10 -80 16 -22 6 -49 6 -68 1 -16
-5 -42 -6 -57 -4 -19 4 -31 0 -40 -12 -10 -14 -21 -17 -44 -12 -17 4 -34 2
-37 -3 -3 -4 -20 -12 -37 -16 -54 -11 -220 -83 -226 -96 -2 -5 -10 -8 -17 -8
-8 0 -20 -8 -27 -18 -7 -11 -56 -38 -108 -61 -98 -44 -155 -89 -192 -151 -11
-19 -31 -51 -43 -70 -13 -19 -26 -51 -30 -70 -10 -49 -29 -74 -43 -58 -6 7
-10 15 -10 18 6 36 -49 169 -96 233 -22 30 -91 79 -166 118 -24 13 -58 38 -74
56 -16 19 -31 31 -34 28 -3 -3 -15 3 -26 13 -12 10 -55 33 -96 51 -41 18 -84
37 -96 42 -11 6 -24 9 -30 8 -15 -5 -54 12 -54 23 0 6 -10 8 -22 5 -11 -3 -33
0 -47 7 -21 10 -45 10 -121 0z"/>
<path d="M990 3345 c0 -8 7 -15 16 -15 14 0 14 3 4 15 -7 8 -14 15 -16 15 -2
0 -4 -7 -4 -15z"/>
<path d="M6056 2944 c-9 -22 -8 -24 9 -18 8 4 15 12 15 20 0 19 -16 18 -24 -2z"/>
</g>
</svg>
